<svg enable-background="new 0 0 200.4 66.5" viewBox="0 0 200.4 66.5" xmlns="http://www.w3.org/2000/svg"><path d="m105.4 17.6c0 2.2-1.8 4.1-4.1 4.1s-4.1-1.8-4.1-4.1 1.7-4.1 4.1-4.1c2.4.2 4.1 2 4.1 4.1zm-16.7 8.2v1s-1.9-2.5-6-2.5c-6.8 0-12.1 5.2-12.1 12.3s5.2 12.3 12.1 12.3c4.2 0 6-2.6 6-2.6v1.1c0 .5.4.9.9.9h5v-23.4s-4.6 0-5 0c-.5 0-.9.5-.9.9zm0 15c-.9 1.4-2.8 2.6-5 2.6-4 0-7-2.5-7-6.7s3.1-6.7 7-6.7c2.2 0 4.2 1.2 5 2.6zm9.7-15.9h6v23.4h-6zm89.3-.6c-4.1 0-6 2.5-6 2.5v-13.1h-6v34.7h5c.5 0 .9-.4.9-.9v-1.1s1.9 2.6 6 2.6c6.8 0 12.1-5.2 12.1-12.3.1-7.2-5.2-12.4-12-12.4zm-1 19c-2.3 0-4.1-1.2-5-2.6v-8.4c.9-1.2 2.9-2.6 5-2.6 4 0 7 2.5 7 6.7s-3 6.9-7 6.9zm-14.1-8.8v14h-6v-13.3c0-3.9-1.2-5.4-4.6-5.4-1.8 0-3.7.9-4.9 2.3v16.3h-6v-23.5h4.7c.5 0 .9.4.9.9v1c1.7-1.8 4.1-2.5 6.4-2.5 2.6 0 4.8.7 6.5 2.2 2.2 1.8 3 4 3 8zm-36-10.2c-4.1 0-6 2.5-6 2.5v-13.1h-6v34.7h5c.5 0 .9-.4.9-.9v-1.1s1.9 2.6 6 2.6c6.8 0 12.1-5.2 12.1-12.3.1-7.2-5.2-12.4-12-12.4zm-1 19c-2.3 0-4.1-1.2-5-2.6v-8.4c.9-1.2 2.9-2.6 5-2.6 4 0 7 2.5 7 6.7s-3 6.9-7 6.9zm-16.2-19c1.8 0 2.7.3 2.7.3v5.5s-5-1.7-8.1 1.9v16.4h-6v-23.5h5c.5 0 .9.4.9.9v1c1.2-1.3 3.7-2.5 5.5-2.5zm-62.1 22c-.3-.7-.6-1.6-.9-2.2-.5-1.1-1-2.2-1.4-3.2l-.1-.1c-4.3-9.3-8.9-18.8-13.8-28.2l-.2-.4c-.5-.9-1-1.9-1.5-2.9-.6-1.1-1.2-2.3-2.2-3.4-2-2.5-4.9-3.9-7.9-3.9-3.1 0-5.9 1.4-8 3.7-1 1.2-1.7 2.3-2.3 3.5-.5 1-1 2-1.5 2.9l-.2.4c-4.8 9.3-9.5 18.8-13.8 28.2l-.1.1c-.4 1-.9 2.1-1.4 3.2-.3.7-.6 1.4-.9 2.2-.8 2.3-1.1 4.5-.7 6.7.7 4.7 3.8 8.6 8.1 10.3 1.6.7 3.3 1 5 1 .5 0 1.1-.1 1.6-.1 2.1-.2 4.2-.9 6.2-2.1 2.6-1.4 5-3.5 7.7-6.5 2.7 3 5.2 5 7.7 6.5 2.1 1.2 4.2 1.9 6.2 2.1.5.1 1.1.1 1.6.1 1.7 0 3.5-.3 5-1 4.4-1.7 7.4-5.7 8.1-10.3.7-2.2.5-4.3-.3-6.6zm-28.1 3.2c-3.4-4.2-5.5-8.2-6.3-11.6-.3-1.4-.4-2.7-.2-3.8.1-1 .5-1.9 1-2.6 1.2-1.7 3.2-2.7 5.5-2.7s4.4 1 5.5 2.7c.5.7.9 1.6 1 2.6.2 1.1.1 2.4-.2 3.8-.8 3.3-3 7.3-6.3 11.6zm24.8 2.9c-.4 3.2-2.6 6-5.7 7.3-1.5.6-3.1.8-4.7.6s-3.1-.7-4.7-1.6c-2.2-1.2-4.5-3.2-7.1-6 4.1-5 6.6-9.7 7.5-13.8.4-1.9.5-3.7.3-5.3s-.8-3-1.7-4.2c-1.9-2.8-5.2-4.4-8.8-4.4s-6.9 1.7-8.8 4.4c-.9 1.2-1.4 2.7-1.7 4.2-.2 1.6-.2 3.4.3 5.3.9 4.1 3.5 8.8 7.5 13.8-2.6 2.9-4.9 4.8-7.1 6-1.6.9-3.2 1.4-4.7 1.6-1.7.2-3.3-.1-4.7-.6-3.1-1.2-5.2-4.1-5.7-7.3-.2-1.6-.1-3.1.6-4.9.2-.6.5-1.2.8-2 .4-1 .9-2.1 1.4-3.1l.1-.1c4.3-9.3 8.9-18.8 13.7-28l.2-.4c.5-.9 1-1.9 1.5-2.9s1.1-1.9 1.7-2.7c1.3-1.5 3.1-2.3 5-2.3s3.7.8 5 2.3c.7.8 1.2 1.7 1.7 2.7.5.9 1 1.9 1.5 2.9l.2.4c4.7 9.3 9.3 18.8 13.6 28v.1c.5 1 .9 2.1 1.4 3.1.3.7.6 1.4.8 2 .7 1.7.9 3.3.6 4.9z" fill="#fff"/></svg>