<svg enable-background="new 0 0 200.4 66.5" viewBox="0 0 200.4 66.5" xmlns="http://www.w3.org/2000/svg"><g fill="#fff"><path d="m49.5 23.2h-23.4v6.9h16.6c-.8 9.7-8.9 13.9-16.6 13.9-9.8 0-18.3-7.7-18.3-18.5.1-10.5 8.2-18.5 18.4-18.5 7.9 0 12.5 5 12.5 5l4.9-5s-6.2-6.9-17.6-6.9c-14.6-.1-25.7 12.1-25.7 25.3 0 12.9 10.5 25.5 26 25.5 13.6 0 23.6-9.3 23.6-23.1-0-2.9-.4-4.6-.4-4.6z"/><path d="m68.6 18.2c-9.6 0-16.5 7.5-16.5 16.2 0 8.9 6.7 16.5 16.6 16.5 9 0 16.3-6.9 16.3-16.3 0-10.9-8.5-16.4-16.4-16.4zm.1 6.4c4.7 0 9.2 3.8 9.2 9.9 0 6-4.4 9.9-9.2 9.9-5.2 0-9.3-4.2-9.3-10-.1-5.6 4-9.8 9.3-9.8z"/><path d="m104.4 18.2c-9.6 0-16.5 7.5-16.5 16.2 0 8.9 6.7 16.5 16.6 16.5 9 0 16.3-6.9 16.3-16.3 0-10.9-8.5-16.4-16.4-16.4zm.1 6.4c4.7 0 9.2 3.8 9.2 9.9 0 6-4.4 9.9-9.2 9.9-5.2 0-9.3-4.2-9.3-10-.1-5.6 4-9.8 9.3-9.8z"/><path d="m139.5 18.2c-8.8 0-15.7 7.7-15.7 16.4 0 9.8 8 16.4 15.6 16.4 4.7 0 7.1-1.9 9-4v3.2c0 5.6-3.4 9-8.6 9-5 0-7.5-3.7-8.4-5.8l-6.4 2.6c2.2 4.7 6.7 9.6 14.7 9.6 8.7 0 15.4-5.5 15.4-17.1v-29.3h-6.9v2.8c-2-2.3-4.9-3.8-8.7-3.8zm.6 6.4c4.3 0 8.7 3.7 8.7 10 0 6.4-4.4 9.9-8.8 9.9-4.7 0-9.1-3.8-9.1-9.9.1-6.3 4.6-10 9.2-10z"/><path d="m185.7 18.1c-8.3 0-15.3 6.6-15.3 16.3 0 10.3 7.8 16.4 16.1 16.4 6.9 0 11.2-3.8 13.7-7.2l-5.7-3.8c-1.5 2.3-3.9 4.5-8 4.5-4.6 0-6.7-2.5-8-5l21.9-9.1-1.1-2.7c-2.2-5-7.1-9.4-13.6-9.4zm.2 6.3c3 0 5.1 1.6 6.1 3.5l-14.7 6.1c-.6-4.7 3.9-9.6 8.6-9.6z"/><path d="m159.9 49.9h7.2v-48.2h-7.2z"/></g></svg>