<svg enable-background="new 0 0 621 196" viewBox="0 0 621 196" xmlns="http://www.w3.org/2000/svg"><g fill="#fff"><path d="m546 196c-41.4 0-75-33.6-75-75s33.6-75 75-75 75 33.6 75 75-33.6 75-75 75zm0-31c24.3 0 44-19.7 44-44s-19.7-44-44-44-44 19.7-44 44 19.7 44 44 44zm-157 31c-41.4 0-75-33.6-75-75s33.6-75 75-75 75 33.6 75 75-33.6 75-75 75zm0-31c24.3 0 44-19.7 44-44s-19.7-44-44-44-44 19.7-44 44 19.7 44 44 44zm-82-45c0 41.9-33.6 76-75 76s-75-34-75-75.9 30.5-74.1 75-74.1c16.4 0 31.6 3.5 44 12.6v-43.5c0-8.3 7.3-15.1 15.5-15.1s15.5 6.8 15.5 15.1zm-75 45c24.3 0 44-19.7 44-44s-19.7-44-44-44-44 19.7-44 44 19.7 44 44 44z"/><path d="m75 196c-41.4 0-75-33.6-75-75s33.6-75 75-75 75 33.6 75 75-33.6 75-75 75zm0-31c24.3 0 44-19.7 44-44s-19.7-44-44-44-44 19.7-44 44 19.7 44 44 44z"/></g></svg>