<svg enable-background="new 0 0 200.4 66.5" viewBox="0 0 200.4 66.5" xmlns="http://www.w3.org/2000/svg"><g fill="#179bd7"><path d="m161.8 22.6c-1.6-1.8-4.3-2.8-8-2.8h-11c-.8 0-1.4.5-1.5 1.3l-4.5 28.3c-.1.6.3 1.1.9 1.1h5.7c.5 0 1-.4 1.1-.9l1.3-8c.1-.7.8-1.3 1.5-1.3h3.5c7.3 0 11.5-3.5 12.6-10.5.3-3.1-.2-5.5-1.6-7.2zm-6.7 7.5c-.6 4-3.6 4-6.6 4h-1.7l1.2-7.4c.1-.4.5-.8.9-.8h.8c2 0 3.9 0 4.8 1.1.6.7.8 1.7.6 3.1z"/><path d="m186.8 30h-5.3c-.5 0-.8.3-.9.8l-.2 1.5-.4-.5c-1.1-1.7-3.7-2.2-6.2-2.2-5.8 0-10.8 4.4-11.8 10.6-.5 3.1.2 6.1 2 8.1 1.6 1.9 3.9 2.7 6.7 2.7 4.7 0 7.3-3 7.3-3l-.2 1.5c-.1.6.3 1.1.9 1.1h4.8c.8 0 1.4-.6 1.5-1.3l2.9-18.1c-.1-.7-.6-1.2-1.1-1.2zm-7.4 10.3c-.5 3-2.9 5-6 5-1.5 0-2.8-.5-3.5-1.4-.8-.9-1.1-2.2-.8-3.7.5-3 2.9-5.1 5.9-5.1 1.5 0 2.7.5 3.5 1.4.8 1 1.1 2.3.9 3.8z"/><path d="m199 19.8h-5.1c-.5 0-.8.3-.9.8l-4.5 28.8c-.1.6.3 1.1.9 1.1h4.6c.8 0 1.4-.5 1.5-1.3l4.5-28.3c0-.6-.4-1.1-1-1.1z"/></g><path d="m83.1 22.6c-1.6-1.8-4.4-2.8-8-2.8h-11.1c-.8 0-1.4.5-1.5 1.3l-4.5 28.3c-.1.6.3 1.1.9 1.1h5.3c.8 0 1.4-.5 1.5-1.3l1.2-7.6c.1-.7.8-1.3 1.5-1.3h3.6c7.3 0 11.5-3.5 12.6-10.5.4-3.1-.1-5.5-1.5-7.2zm-6.8 7.5c-.6 4-3.6 4-6.6 4h-1.7l1.2-7.4c.1-.4.5-.8.9-.8h.9c2 0 3.9 0 4.8 1.1.6.7.8 1.7.5 3.1z" fill="#253b80"/><path d="m108 30h-5.3c-.5 0-.8.3-.9.8l-.2 1.5-.4-.5c-1.1-1.7-3.7-2.2-6.2-2.2-5.8 0-10.8 4.4-11.8 10.6-.5 3.1.2 6.1 2 8.1 1.6 1.9 3.9 2.7 6.7 2.7 4.7 0 7.3-3 7.3-3l-.2 1.5c-.1.6.3 1.1.9 1.1h4.8c.8 0 1.4-.6 1.5-1.3l2.8-18.3c0-.5-.4-1-1-1zm-7.3 10.3c-.5 3-2.9 5-6 5-1.5 0-2.8-.5-3.5-1.4-.8-.9-1.1-2.2-.8-3.7.5-3 2.9-5.1 5.9-5.1 1.5 0 2.7.5 3.5 1.4.8 1 1.1 2.3.9 3.8z" fill="#253b80"/><path d="m136.2 30h-5.3c-.5 0-1 .3-1.3.7l-7.3 10.8-3.1-10.4c-.2-.6-.8-1.1-1.5-1.1h-5.2c-.6 0-1.1.6-.9 1.2l5.8 17.2-5.5 7.8c-.4.6 0 1.5.8 1.5h5.3c.5 0 1-.2 1.3-.7l17.7-25.5c.4-.7-.1-1.5-.8-1.5z" fill="#253b80"/><path d="m39.8 22.9c-.6-.7-1.3-1.2-2.2-1.7 0 .3-.1.6-.2.9s-.1.6-.2.8c-1.8 8.5-7.2 12.1-14.2 12.9-.5.1-.9.1-1.4.1s-1.1 0-1.6 0h-4.4c-1.1 0-2 .8-2.1 1.8l-2 12.8-.3 1.6-.6 4.1c-.1.7.4 1.3 1.1 1.3h7.9c.9 0 1.7-.7 1.9-1.6l.1-.4 1.5-9.4.1-.5c.1-.9.9-1.6 1.9-1.6h1.2c7.4 0 13.4-3 15.1-12 .7-3.8.4-6.9-1.6-9.1z" fill="#179bd7"/><path d="m13.4 37.8.1-.5 2.5-16c.1-.6.5-1.2 1.1-1.4.2-.1.5-.2.8-.2h11.9c1.4 0 2.7.1 3.9.3.3.1.7.1 1 .2s.6.2.9.2c.1 0 .2.1.3.1h.1.1c.6.2 1.1.4 1.6.7.6-3.8 0-6.4-2.1-8.7-2.3-2.6-6.3-3.7-11.5-3.7h-15.2c-1.1 0-2 .8-2.1 1.8l-6.3 40c-.1.8.5 1.5 1.3 1.5h9.3l.3-1.6z" fill="#253b80"/><path d="m37.7 21.2c-.5-.3-1-.5-1.6-.7 0 0 0 0-.1 0h-.1c-.1 0-.2-.1-.3-.1-.3-.1-.6-.2-.9-.2-.3-.1-.7-.1-1-.2-1.2-.2-2.5-.3-3.9-.3h-11.9c-.3 0-.6.1-.8.2-.5.3-1 .8-1.1 1.4l-2.5 16-.1.5c.2-1.1 1.1-1.8 2.1-1.8h4.5 1.6c.5 0 1-.1 1.4-.1 7-.9 12.4-4.5 14.3-12.9.1-.3.1-.5.2-.8.1-.4.1-.7.2-1 0 .1 0 .1 0 0z" fill="#222d65"/></svg>