<svg enable-background="new 0 0 200.4 66.5" viewBox="0 0 200.4 66.5" xmlns="http://www.w3.org/2000/svg" xmlns:xlink="http://www.w3.org/1999/xlink"><mask id="a" height="48.8" maskUnits="userSpaceOnUse" width="22.5" x="13" y="2.7"><path d="m-6.7 57.8h42.2v-55.1h-42.2z" fill="#fff"/></mask><mask id="b" height="48.8" maskUnits="userSpaceOnUse" width="22.5" x="-6.7" y="9.1"><path d="m-6.7 57.8h42.2v-55.1h-42.2z" fill="#fff"/></mask><g transform="translate(14 4)"><path d="m22.6 6.1c-.8-2.6-3.6-4-6.2-3.2s-4 3.6-3.2 6.2l12.7 39.1c.9 2.4 3.5 3.8 6 3 2.6-.8 4.2-3.5 3.4-6.1-.1 0-12.7-39-12.7-39" fill="#dfa22f" mask="url(#a)"/><path d="m2.9 12.5c-.9-2.6-3.6-4-6.2-3.2s-4 3.6-3.2 6.2l12.7 39.1c.9 2.4 3.5 3.8 6 3 2.6-.8 4.2-3.5 3.4-6.1-.1 0-12.7-39-12.7-39" fill="#3cb187" mask="url(#b)"/></g><path d="m52.6 42.4c2.6-.8 4-3.6 3.2-6.2s-3.6-4-6.2-3.2l-39.2 12.8c-2.4.9-3.8 3.5-3 6 .8 2.6 3.5 4.2 6.1 3.4.1-.1 39.1-12.8 39.1-12.8" fill="#ce1e5b"/><path d="m18.6 53.5c2.5-.8 5.8-1.9 9.3-3-.8-2.5-1.9-5.8-3-9.3l-9.3 3z" fill="#392538"/><g transform="translate(0 18)"><path d="m38.3 29.1c3.5-1.1 6.8-2.2 9.3-3-.8-2.5-1.9-5.8-3-9.3l-9.3 3z" fill="#bb242a"/><path d="m46.2 4.7c2.6-.8 4-3.6 3.2-6.2s-3.6-4-6.2-3.2l-39.2 12.8c-2.4.9-3.8 3.5-3 6 .8 2.6 3.5 4.2 6.1 3.4.1-.1 39.1-12.8 39.1-12.8" fill="#72c5cd"/></g><path d="m12.2 33.8c2.5-.8 5.8-1.9 9.3-3-1.1-3.5-2.2-6.8-3-9.3l-9.3 3z" fill="#238c73"/><path d="m31.9 27.4c3.5-1.1 6.8-2.2 9.3-3-1.1-3.5-2.2-6.8-3-9.3l-9.3 3z" fill="#62803a"/><g fill="#373d40"><path d="m92.2 20.3c1.7.8 1.9 1.3.5 3.9s-1.7 2.8-3.4 2.1c-2.1-.9-4.9-1.6-6.6-1.6-2.9 0-4.8 1-4.8 2.6 0 5.2 16.6 2.4 16.6 13.5 0 5.6-4.8 9.3-11.9 9.3-3.8 0-8.4-1.3-11.6-2.9-1.6-.8-1.7-1.3-.3-3.9 1.2-2.3 1.6-2.6 3.3-1.9 2.7 1.2 6.2 2.1 8.5 2.1 2.6 0 4.4-1.1 4.4-2.6 0-5-16.9-2.6-16.9-13.4 0-5.7 4.7-9.5 11.9-9.5 3.2 0 7.4 1 10.3 2.3"/><path d="m105.6 7.2v41.2c0 .6-.7 1.3-1.6 1.3h-4.3c-.9 0-1.6-.7-1.6-1.3v-41.2c0-2 .6-2.2 3.8-2.2 3.5 0 3.7.2 3.7 2.2"/><path d="m116.4 40.7c0 2.1 1.8 3.5 4.5 3.5 3.3 0 6.2-1.6 8-4.2v-2.8c-1.7-.7-3.8-1-5.7-1-4.1 0-6.8 1.9-6.8 4.5zm20-10.3v17.8c0 .9-.7 1.6-1.6 1.6h-4.3c-1 0-1.7-.7-1.6-1.7l.1-1.9c-2.3 2.6-5.7 3.9-9 3.9-6.5 0-10.8-3.7-10.8-9.3 0-5.9 4.9-9.9 12.3-10 2.8 0 5.3.5 7.4 1.4v-2c0-3.3-2.6-5.2-6.9-5.2-2 0-4.6.8-6.6 2-1.5.9-1.9.8-3.6-1.7-1.6-2.5-1.6-3 0-4 3-1.9 7.1-3.2 10.9-3.2 8.4-.1 13.7 4.5 13.7 12.3z"/><g transform="translate(307)"><path d="m-141.2 20.4c1.6.9 1.6 1.4-.1 4.1-1.6 2.5-1.9 2.7-3.6 1.8-1.3-.7-3.4-1.3-5.2-1.3-5.4 0-9.1 3.6-9.1 9 0 5.6 3.6 9.4 9.1 9.4 1.9 0 4.2-.7 5.8-1.6s1.9-.8 3.6 1.6c1.5 2.3 1.5 2.8.1 3.7-2.4 1.7-6.3 3-9.6 3-10.1 0-16.8-6.4-16.8-16.1 0-9.6 6.7-16 16.9-16 3.1 0 6.7 1.1 8.9 2.4"/><path d="m-108.3 45.8c1.3 1.6.8 2.2-2.4 3.3-3.2 1.2-3.6 1.1-4.8-.4l-9-12-4 3.9v7.8c0 .6-.7 1.3-1.6 1.3h-4.3c-.9 0-1.6-.7-1.6-1.3v-41.2c0-2 .6-2.2 3.8-2.2 3.6 0 3.8.3 3.8 2.2v23.5l12.3-11.8c1.4-1.3 2.1-1.2 4.5.4 2.7 1.7 2.9 2.2 1.6 3.5l-9.2 8.9z"/></g></g></svg>