<svg enable-background="new 0 0 200.4 66.5" viewBox="0 0 200.4 66.5" xmlns="http://www.w3.org/2000/svg"><path d="m30.1 3.2c-16.6 0-30.1 13.4-30.1 30s13.5 30.1 30.1 30.1 30.1-13.5 30.1-30.1c-.1-16.6-13.5-30-30.1-30zm13.7 43.3c-.5.9-1.7 1.2-2.6.6-7.1-4.3-15.9-5.3-26.4-2.9-1 .2-2-.4-2.2-1.4s.4-2 1.4-2.2c11.5-2.6 21.3-1.5 29.2 3.4.9.5 1.2 1.6.6 2.5zm3.7-8.2c-.7 1.1-2.1 1.5-3.2.8-8.1-5-20.4-6.4-29.9-3.5-1.2.4-2.5-.3-2.9-1.6-.4-1.2.3-2.5 1.6-2.9 10.9-3.3 24.5-1.7 33.8 4 .9.7 1.3 2.1.6 3.2zm.3-8.5c-9.7-5.8-25.7-6.3-34.9-3.5-1.5.5-3.1-.4-3.5-1.9-.4-1.4.4-3 1.9-3.4 10.6-3.2 28.3-2.6 39.4 4 1.3.8 1.8 2.5 1 3.9-.8 1.3-2.5 1.7-3.9.9zm34 1.1c-5.2-1.2-6.1-2.1-6.1-3.9 0-1.7 1.6-2.9 4-2.9 2.3 0 4.7.9 7.1 2.7.1.1.2.1.3.1s.2-.1.2-.1l2.5-3.6c.1-.1.1-.3-.1-.5-2.9-2.3-6.2-3.5-10-3.5-5.6 0-9.5 3.4-9.5 8.2 0 5.2 3.4 7 9.2 8.4 5 1.1 5.8 2.1 5.8 3.8 0 1.9-1.7 3.1-4.4 3.1-3 0-5.5-1-8.3-3.4-.1-.1-.2-.1-.2-.1-.1 0-.2.1-.2.1l-2.8 3.4c-.1.1-.1.4 0 .5 3.2 2.9 7.2 4.4 11.4 4.4 6 0 9.9-3.3 9.9-8.4.1-4.3-2.5-6.7-8.8-8.3zm22.5-5.1c-2.6 0-4.8 1-6.5 3.1v-2.4c0-.2-.2-.3-.3-.3h-4.6c-.2 0-.3.2-.3.3v26.5c0 .2.2.3.3.3h4.6c.2 0 .3-.2.3-.3v-8.3c1.8 2 3.9 3 6.5 3 4.9 0 9.8-3.7 9.8-10.9s-4.9-11-9.8-11zm4.4 10.9c0 3.6-2.2 6.2-5.5 6.2-3.2 0-5.6-2.7-5.6-6.2s2.4-6.2 5.6-6.2 5.5 2.6 5.5 6.2zm18-10.9c-6.3 0-11.2 4.8-11.2 11 0 6.1 4.9 10.9 11.1 10.9 6.3 0 11.2-4.8 11.2-10.9.1-6.2-4.8-11-11.1-11zm0 17.1c-3.3 0-5.8-2.7-5.8-6.2 0-3.6 2.4-6.1 5.8-6.1s5.9 2.7 5.9 6.2c-.1 3.6-2.5 6.1-5.9 6.1zm24.5-16.7h-5.1v-5.2c0-.2-.2-.3-.3-.3h-4.6c-.2 0-.3.2-.3.3v5.2h-2.2c-.2 0-.3.2-.3.3v4c0 .2.2.3.3.3h2.2v10.3c0 4.2 2.1 6.3 6.2 6.3 1.7 0 3-.3 4.3-1.1.1-.1.2-.2.2-.3v-3.8c0-.1-.1-.2-.2-.3s-.2-.1-.3 0c-.9.4-1.8.7-2.7.7-1.5 0-2.2-.7-2.2-2.2v-9.6h5.1c.2 0 .3-.2.3-.3v-4c0-.1-.2-.3-.4-.3zm17.8.1v-.6c0-1.9.7-2.7 2.3-2.7 1 0 1.7.2 2.6.5h.3c.1-.1.1-.2.1-.3v-3.9c0-.1-.1-.3-.2-.3-.9-.3-2.1-.6-3.9-.6-4.3 0-6.6 2.4-6.6 7v1h-2.2c-.2 0-.3.2-.3.3v4c0 .2.2.3.3.3h2.2v15.9c0 .2.2.3.3.3h4.6c.2 0 .3-.2.3-.3v-16h4.3l6.6 15.9c-.8 1.7-1.5 2-2.5 2-.8 0-1.7-.2-2.6-.7-.1 0-.2-.1-.3 0-.1 0-.2.1-.2.2l-1.6 3.5c-.1.2 0 .4.1.4 1.6.9 3.1 1.3 5 1.3 3.4 0 5.3-1.6 7-5.9l8.1-20.8c0-.1 0-.2 0-.3-.1-.1-.2-.1-.3-.1h-4.4c-.1 0-.3.1-.3.2l-5 14.2-5.4-14.2c-.1-.1-.2-.2-.3-.2zm-10.3-.1h-4.6c-.2 0-.3.2-.3.3v20.3c0 .2.2.3.3.3h4.6c.2 0 .3-.2.3-.3v-20.2c.1-.2-.1-.4-.3-.4zm-2.3-9.2c-1.8 0-3.3 1.5-3.3 3.3s1.5 3.3 3.3 3.3 3.3-1.5 3.3-3.3-1.4-3.3-3.3-3.3zm40.7 15.8c-1.8 0-3.3-1.5-3.3-3.3s1.4-3.3 3.3-3.3 3.3 1.5 3.3 3.3-1.4 3.3-3.3 3.3zm0-6.3c-1.7 0-2.9 1.3-2.9 3 0 1.6 1.3 2.9 2.9 2.9 1.7 0 2.9-1.3 2.9-3 .1-1.6-1.2-2.9-2.9-2.9zm.8 3.3.9 1.3h-.8l-.8-1.2h-.7v1.2h-.7v-3.4h1.5c.8 0 1.3.4 1.3 1.1.1.5-.3.9-.7 1zm-.6-1.5h-.9v1.1h.9c.4 0 .7-.2.7-.5 0-.5-.3-.6-.7-.6z" fill="#fff"/></svg>